<?xml version="1.0" encoding="utf-8"?>
<!-- Generator: Adobe Illustrator 24.0.3, SVG Export Plug-In . SVG Version: 6.00 Build 0)  -->
<svg version="1.1" id="Layer_1" xmlns="http://www.w3.org/2000/svg" xmlns:xlink="http://www.w3.org/1999/xlink" x="0px" y="0px"
	 viewBox="0 0 100 100" style="enable-background:new 0 0 100 100;" xml:space="preserve">
<style type="text/css">
	.st0{fill:#D8D8D8;}
	.st1{fill:#918291;}
	.st2{fill:#7A6D79;}
	.st3{fill:#FFBB91;}
	.st4{fill:#B5ADB6;}
	.st5{fill:#A79BA7;}
	.st6{fill:#FF9A76;}
	.st7{fill:#F9F3F1;}
	.st8{fill:#EAF6FF;}
	.st9{fill:#D8ECFE;}
	.st10{fill:#F3EAE6;}
	.st11{fill:#E1D3CE;}
	.st12{fill:#CDBFBA;}
	.st13{fill:#3D3D3D;}
	.st14{font-family:'Odin-Bold';}
	.st15{font-size:3.4495px;}
</style>
<path class="st0" d="M50.5,0.5c-27,0-48.8,22.1-48.8,49.4c0,27.3,21.9,49.4,48.8,49.4c27,0,48.8-22.1,48.8-49.4
	C99.3,22.7,77.5,0.5,50.5,0.5z"/>
<g>
	<path class="st1" d="M28.5,47h-4.4c-1.1,0-1.9-0.9-1.9-1.9v-9.4c0-1.1,0.9-1.9,1.9-1.9h4.4V47z"/>
	<path class="st1" d="M72.9,47h4.4c1.1,0,1.9-0.9,1.9-1.9v-9.4c0-1.1-0.9-1.9-1.9-1.9h-4.4V47z"/>
	<path class="st2" d="M79.3,35.7v9.4c0,0.1,0,0.2,0,0.3c0,0.1,0,0.2-0.1,0.3c-0.2,0.8-1,1.3-1.8,1.3h-1.9c0.9-0.2,1.5-1,1.5-1.9
		v-9.4c0-0.9-0.6-1.7-1.5-1.9h1.9c0.9,0,1.6,0.6,1.8,1.3c0,0,0,0.1,0,0.1c0,0.1,0,0.1,0,0.2C79.3,35.5,79.3,35.6,79.3,35.7z"/>
	<path class="st3" d="M68.3,18.7H33.1c-1.7,0-3.3,0.8-4.4,2.1c-0.9,1.1-1.4,2.5-1.4,4v40.3h46.7V24.8c0-1.5-0.5-2.9-1.4-4
		C71.6,19.5,70,18.7,68.3,18.7L68.3,18.7z"/>
	<g>
		<path class="st4" d="M37.8,77h-6.9c-1.3,0-2.4-1.1-2.4-2.4v-6.4h11.7v6.4C40.2,75.9,39.1,77,37.8,77z"/>
		<path class="st4" d="M70.5,77h-6.9c-1.3,0-2.4-1.1-2.4-2.4v-7.1h11.7v7.1C72.9,75.9,71.9,77,70.5,77z"/>
	</g>
	<g>
		<path class="st5" d="M72.9,68.8v5.6c0,1.4-1,2.5-2.5,2.5H68c1.4,0,2.5-1.1,2.5-2.5v-5.6H72.9z"/>
		<path class="st5" d="M40.2,68.8v5.6c0,1.4-1,2.5-2.5,2.5h-2.4c1.4,0,2.5-1.1,2.5-2.5v-5.6H40.2z"/>
	</g>
	<path class="st1" d="M75.3,68.8H26.1c-0.7,0-1.3-0.6-1.3-1.3v-2.2c0-0.7,0.6-1.3,1.3-1.3h49.2c0.7,0,1.3,0.6,1.3,1.3v2.2
		C76.6,68.3,76,68.8,75.3,68.8z"/>
	<path class="st2" d="M76.6,65.4v2.1c0,0.7-0.6,1.3-1.3,1.3h-2.3c0.7,0,1.3-0.6,1.3-1.3v-2.1c0-0.7-0.6-1.3-1.3-1.3h2.3
		C76,64.1,76.6,64.7,76.6,65.4z"/>
	<path class="st2" d="M25,33.7h2.3V47H25V33.7z"/>
	<path class="st6" d="M74.1,24.8v39.3h-2.5V24.8c0-1.5-0.5-2.9-1.4-4c-0.5-0.7-1.2-1.2-2-1.6s-1.6-0.6-2.4-0.6h2.5
		c0.9,0,1.7,0.2,2.4,0.6s1.4,0.9,2,1.6C73.6,21.9,74.1,23.3,74.1,24.8z"/>
	<path class="st7" d="M62.9,27.1H38.5c-1.2,0-2.2-1-2.2-2.2v-0.2c0-1.2,1-2.2,2.2-2.2h24.4c1.2,0,2.2,1,2.2,2.2v0.2
		C65.1,26.1,64.1,27.1,62.9,27.1z"/>
	<path class="st8" d="M50.7,31.2H33.3c-1.3,0-2.3,1-2.3,2.3V48c0,1.1,0.8,2.1,2,2.3c2.2,0.4,6,0.9,10.7,1.4c4.7,0.5,9.5,0.5,14.2,0
		c4.8-0.5,8.6-1.1,10.7-1.4c1.1-0.2,2-1.2,2-2.3V33.5c0-1.3-1-2.3-2.3-2.3H50.7z"/>
	<g>
	</g>
	<path class="st9" d="M70.5,33.5V48c0,1.1-0.8,2.1-2,2.3c-0.4,0.1-0.8,0.1-1.2,0.2c0.5-0.5,0.8-1.1,0.8-1.9v-15c0-1.3-1-2.4-2.3-2.4
		h2.3C69.5,31.2,70.5,32.2,70.5,33.5z"/>
	<path class="st7" d="M31.5,56.8v1.5c0,1.2,0.9,2.1,2.1,2.1h6.7c1.2,0,2.1-0.9,2.1-2.1c0-1-0.7-1.8-1.7-2L34,54.7
		C32.7,54.5,31.5,55.4,31.5,56.8z"/>
	<path class="st10" d="M42.4,58.2c0,1.2-0.9,2.1-2.1,2.1h-2.3c1.2,0,2.1-1.1,2.1-2.4c0-0.6-0.2-1.1-0.5-1.5
		c-0.1-0.2-0.3-0.4-0.5-0.5l1.7,0.4c0.5,0.1,0.9,0.4,1.2,0.7C42.2,57.3,42.4,57.7,42.4,58.2z"/>
	<path class="st7" d="M69.9,56.8v1.5c0,1.2-0.9,2.1-2.1,2.1h-6.7c-1.2,0-2.1-0.9-2.1-2.1c0-1,0.7-1.8,1.7-2l6.7-1.5
		C68.7,54.5,69.9,55.4,69.9,56.8z"/>
	<path class="st10" d="M69.9,56.8v1.5c0,1.2-0.9,2.1-2.1,2.1h-2.3c1.2,0,2.1-0.9,2.1-2.1v-1.5c0-0.8-0.5-1.5-1.1-1.9l0.9-0.2
		C68.7,54.5,69.9,55.4,69.9,56.8z"/>
	<g>
		<g>
			<path class="st1" d="M54.8,59.3h-8.3c-0.5,0-0.9-0.4-0.9-0.9s0.4-0.9,0.9-0.9h8.3c0.5,0,0.9,0.4,0.9,0.9S55.3,59.3,54.8,59.3z"/>
		</g>
	</g>
	<path class="st11" d="M57.2,64.1v6.1c0,0.4-0.3,0.7-0.6,0.7c0,0,0,0-0.1,0H44.9c-0.4,0-0.7-0.3-0.7-0.7v-6.1H57.2z"/>
	<path class="st12" d="M57.2,64.1v6.1c0,0.4-0.3,0.7-0.6,0.7c0,0,0,0-0.1,0c0,0,0,0,0,0h-2.3c0,0,0,0,0,0c0.4,0,0.7-0.3,0.7-0.7
		v-6.1H57.2z"/>
	<text transform="matrix(1 0 0 1 45.042 25.9831)" class="st13 st14 st15">busApp</text>
</g>
</svg>
