<?xml version="1.0" encoding="utf-8"?>
<!-- Generator: Adobe Illustrator 24.0.3, SVG Export Plug-In . SVG Version: 6.00 Build 0)  -->
<svg version="1.1" id="Layer_1" xmlns="http://www.w3.org/2000/svg" xmlns:xlink="http://www.w3.org/1999/xlink" x="0px" y="0px"
	 viewBox="0 0 100 100" style="enable-background:new 0 0 100 100;" xml:space="preserve">
<style type="text/css">
	.st0{fill:#F58D80;}
	.st1{fill:#A6A6AD;}
	.st2{fill:#3E3E42;}
	.st3{opacity:0.1;enable-background:new    ;}
	.st4{fill:#D2D2D6;}
	.st5{fill:#57575E;}
	.st6{fill:#F3EFD2;}
	.st7{fill:#415661;}
	.st8{fill:#3A4D57;}
	.st9{fill:#E1574C;}
	.st10{fill:#C7C9CA;}
	.st11{fill:#D2D4D5;}
	.st12{fill:#D65449;}
	.st13{fill:#D6554A;}
	.st14{fill:#E7E3C7;}
	.st15{fill:#B4B5B6;}
	.st16{fill:#BDBFC0;}
	.st17{fill:#BCBEBF;}
</style>
<path class="st0" d="M50,0C22.4,0,0,22.4,0,50c0,27.6,22.4,50,50,50c27.6,0,50-22.4,50-50C100,22.4,77.6,0,50,0z"/>
<polygon class="st1" points="57.1,75.8 43.8,75.8 45,69.1 55.8,69.1 "/>
<path class="st2" d="M76.3,71H24.5c-2,0-4.2-2.2-4.2-4.2V31.2c0-2,1.6-3.6,3.6-3.6h53c2,0,3.6,1.6,3.6,3.6v35.5
	C80.5,68.7,78.3,71,76.3,71z"/>
<polygon class="st3" points="56.5,72.8 55.8,69.1 45,69.1 44.3,72.8 "/>
<path class="st4" d="M20.3,63.9v3.4c0,2,1.6,3.6,3.6,3.6h53c2,0,3.6-1.6,3.6-3.6v-3.4c0-0.1-0.1-0.2-0.2-0.2H20.5
	C20.4,63.7,20.3,63.8,20.3,63.9z"/>
<rect x="23.3" y="30.6" class="st5" width="54.2" height="30.1"/>
<circle class="st1" cx="50.4" cy="67.3" r="1.8"/>
<path class="st4" d="M60.1,76.4c0,0.4-0.2,0.6-0.6,0.6H41.4c-0.4,0-0.6-0.2-0.6-0.6v-0.6c0-0.4,0.2-0.6,0.6-0.6h18.1
	c0.4,0,0.6,0.2,0.6,0.6V76.4z"/>
<g>
	<g>
		<path class="st6" d="M77.1,41c0.1,0.1,0.3,0.2,0.4,0.3c0.7,0.8,1.4,1.6,2.1,2.4c0.5,0.5,1,1.1,1.4,1.6c-0.1,0.1-0.3,0.2-0.4,0.4
			c-0.4,0.4-0.7,0.7-1.1,1.1c-0.4,0.4-0.9,0.8-1.3,1.3c-0.2,0.2-0.3,0.3-0.5,0.5c-0.3,0.3-0.7,0.7-1,1c-0.1,0.1-0.3,0.3-0.4,0.4
			c-0.2,0.2-0.4,0.4-0.6,0.6c-0.2,0.2-0.4,0.4-0.6,0.6c-0.2,0.2-0.4,0.4-0.6,0.6c-0.4,0.4-0.8,0.7-1.1,1.1c-0.3,0.3-0.7,0.6-1,1
			c-0.2-0.2-0.5-0.5-0.7-0.7c-0.5-0.6-1-1.1-1.5-1.7c-0.6-0.6-1.1-1.3-1.7-1.9c-0.1-0.1-0.2-0.3-0.3-0.4c0.2-0.2,0.5-0.4,0.7-0.7
			c0.1,0,0.2,0.1,0.2,0.1c0.3,0.3,0.5,0.6,0.8,0.8c0.5,0.6,1,1.1,1.5,1.7c0.2,0.2,0.3,0.4,0.5,0.5c0.2,0.2,0.4,0.2,0.5,0
			c0.1-0.1,0.1-0.3,0-0.4c-0.7-0.7-1.3-1.5-2-2.2c-0.3-0.4-0.6-0.7-0.9-1.1c0.2-0.2,0.4-0.4,0.7-0.6c0.2,0.2,0.4,0.4,0.6,0.7
			c0.3,0.3,0.6,0.7,0.9,1c0.5,0.5,0.9,1,1.4,1.5c0.1,0.1,0.4,0.2,0.5,0c0.1-0.1,0.1-0.3,0-0.5c-0.4-0.4-0.7-0.8-1.1-1.2
			c-0.4-0.5-0.9-1-1.4-1.5c-0.2-0.2-0.3-0.4-0.4-0.5c0.2-0.2,0.4-0.4,0.6-0.5c0.2,0.2,0.5,0.5,0.7,0.7c0.3,0.3,0.6,0.7,0.9,1.1
			c0.4,0.5,0.9,1,1.3,1.5c0.1,0.2,0.3,0.1,0.4,0c0.1-0.1,0.1-0.3,0-0.4c-0.1-0.1-0.2-0.2-0.2-0.3c-0.8-0.9-1.7-1.9-2.5-2.8
			c0-0.1-0.1-0.1-0.1-0.2c0.1,0,0.2-0.1,0.3-0.1c0.3-0.1,0.6,0,0.9,0.1c0.2,0.2,0.4,0.4,0.6,0.6c0.1,0.1,0.2,0.2,0.3,0.3
			c0,0.1,0,0.1,0.1,0.2c0.2,0.2,0.3,0.4,0.5,0.6c0.3,0.3,0.6,0.7,0.9,1c0.1,0.1,0.3,0.1,0.4,0c0.1-0.1,0.1-0.3,0-0.5
			c0,0-0.1-0.1-0.1-0.1c-0.4-0.4-0.7-0.8-1.1-1.3c0.2-0.2,0.3-0.5,0.3-0.8c0,0,0.1,0.1,0.1,0.1c0.2,0.3,0.5,0.5,0.7,0.8
			c0.2,0.3,0.4,0.5,0.7,0.4c0.4-0.1,0.5-0.1,0.6-0.6c0.1-0.3-0.2-0.5-0.3-0.7c-0.1-0.1-0.1-0.2-0.2-0.2c0.2,0,0.4,0,0.6,0
			c0.2,0.3,0.5,0.6,0.7,0.8c0,0,0.1,0,0.1,0c0.3-0.1,0.4-0.3,0.2-0.5c-0.2-0.3-0.4-0.5-0.6-0.7c0-0.3,0-0.6-0.3-0.8
			c0,0,0-0.1-0.1-0.1c-0.4-0.4-0.8-0.8-1.1-1.3c0-0.3,0-0.5,0-0.8c0.1,0.1,0.2,0.1,0.3,0.2c0.3,0.3,0.5,0.6,0.8,0.9
			c0.3,0.3,0.6,0.7,0.9,1c0.3,0.3,0.6,0.6,0.9,1c0.2,0.2,0.4,0.2,0.5,0.1c0.1-0.2,0.1-0.3,0-0.5c-0.3-0.4-0.7-0.8-1-1.2
			c-0.5-0.5-0.9-1-1.4-1.5c-0.2-0.2-0.3-0.4-0.4-0.6C76.6,41.5,76.9,41.2,77.1,41z"/>
		<path class="st7" d="M83.9,48.7c0.2,0.2,0.4,0.3,0.5,0.5c0.4,0.4,0.7,0.8,1.1,1.2c0.1,0.1,0.2,0.4,0,0.6c-0.2,0.3-0.5,0.5-0.7,0.8
			c-0.4,0.5-0.6,1-0.7,1.6c-0.1,0.6-0.1,1.3,0,1.9c0,0.2,0.2,0.5,0.3,0.7c0.3,0.6,0.7,1.1,1.3,1.4c0.7,0.4,1.4,0.8,2,1.3
			c0.4,0.3,0.8,0.7,1.1,1c0.2,0.2,0.3,0.3,0.5,0.5c0.4,0.5,0.6,1,0.5,1.6c-0.1,0.5-0.3,1-0.7,1.4c-0.4-0.5-0.8-0.9-1.2-1.4
			c-0.4-0.5-0.9-1-1.3-1.5c-0.6-0.7-1.1-1.3-1.7-2c-0.5-0.5-0.9-1-1.4-1.5c-0.6-0.7-1.3-1.4-1.9-2.1c-0.3-0.3-0.6-0.7-0.9-1
			c-0.3-0.3-0.5-0.5-0.8-0.8c0,0,0-0.1,0-0.1c0.8-0.7,1.5-1.5,2.3-2.2c0.3-0.3,0.7-0.6,1-0.9C83.3,49.4,83.6,49,83.9,48.7z"/>
		<path class="st8" d="M79.7,52.9c0.3,0.3,0.5,0.5,0.8,0.8c0.3,0.3,0.6,0.7,0.9,1c0.6,0.7,1.2,1.4,1.9,2.1c0.5,0.5,0.9,1,1.4,1.5
			c0.6,0.7,1.2,1.3,1.7,2c0.4,0.5,0.9,1,1.3,1.5c0.4,0.5,0.8,0.9,1.2,1.4c-0.4,0.3-0.8,0.5-1.4,0.6c-0.6,0-1.1-0.1-1.5-0.5
			c-0.3-0.3-0.7-0.7-0.9-1.1c-0.3-0.4-0.5-0.8-0.7-1.2c-0.3-0.5-0.5-1-0.7-1.5c-0.1-0.2-0.2-0.4-0.4-0.6c-0.5-0.7-1.1-1.2-1.9-1.4
			c-1-0.3-2-0.3-3,0.2c-0.4,0.2-0.8,0.5-1.2,0.7c-0.3,0.2-0.4,0.2-0.7-0.1c-0.4-0.4-0.7-0.8-1.1-1.3c0,0,0,0,0-0.1
			c0.3-0.3,0.5-0.5,0.8-0.8c0.7-0.6,1.3-1.3,2-1.9C78.6,53.8,79.1,53.4,79.7,52.9z"/>
		<path class="st9" d="M75.9,43.2c0.3,0.5,0.7,0.9,1.1,1.3c0,0,0,0.1,0.1,0.1c0,0.3,0,0.5-0.2,0.7c-0.2,0.2-0.4,0.2-0.7,0.1
			c0.1,0.1,0.2,0.3,0.3,0.4c0,0,0,0,0,0l0,0c0.1,0.1,0.1,0.2,0.2,0.2c0,0.6-0.1,1-0.9,0.9c0,0,0,0,0,0c-0.2-0.3-0.5-0.5-0.7-0.8
			c0,0-0.1-0.1-0.1-0.1c0,0,0,0,0,0c0,0,0-0.1,0-0.1c-0.1-0.1-0.2-0.2-0.3-0.3c0,0.1-0.1,0.2-0.1,0.3c0,0.3-0.2,0.5-0.5,0.6
			c-0.2,0-0.3,0-0.5,0c-0.2-0.2-0.4-0.4-0.6-0.6c-0.1-0.1-0.2-0.3-0.3-0.3c-0.2-0.1-0.5-0.1-0.7-0.2c-0.2-0.1-0.4,0-0.6,0.1
			c-0.6,0.5-1.1,1-1.6,1.5c-0.4,0.3-0.7,0.6-1.1,0.9c-0.3,0.2-0.5,0.5-0.8,0.8c-0.1-0.1-0.1-0.1-0.2-0.2c-0.3-0.3-0.2-0.7,0.1-0.9
			c0.5-0.5,1-1,1.6-1.4c0.8-0.7,1.6-1.4,2.4-2.1c0.5-0.5,1-0.9,1.5-1.4c0.6-0.6,1.3-1.1,1.9-1.7c0.2-0.2,0.4-0.3,0.5-0.5
			c0.4-0.4,0.9-0.4,1.2,0.1c-0.1,0.1-0.2,0.2-0.4,0.3c-0.2,0.2-0.5,0.4-0.7,0.7c-0.3,0.3-0.3,0.8-0.2,1.2
			C75.6,42.9,75.8,43,75.9,43.2z"/>
		<path class="st10" d="M79.7,52.9c-0.5,0.5-1,0.9-1.5,1.4c-0.7,0.6-1.3,1.3-2,1.9c-0.3,0.2-0.5,0.5-0.8,0.8
			c-0.1-0.1-0.2-0.2-0.3-0.3c-0.6-0.7-1.3-1.4-1.9-2.1c-0.3-0.3-0.5-0.6-0.8-0.8c0.3-0.3,0.7-0.6,1-1c0.4-0.4,0.8-0.7,1.1-1.1
			c0.2-0.2,0.4-0.4,0.6-0.6c0.2-0.2,0.4-0.4,0.6-0.6c0.2-0.2,0.4-0.4,0.6-0.6c0.1-0.1,0.3-0.3,0.4-0.4c0.4,0.4,0.8,0.9,1.2,1.3
			c0.5,0.6,0.9,1.1,1.4,1.7C79.4,52.6,79.6,52.7,79.7,52.9C79.7,52.8,79.7,52.9,79.7,52.9z M77.5,52.7c0-0.4-0.3-0.8-0.6-0.8
			c-0.5,0.1-0.8,0.2-0.8,0.7c0,0.4,0.3,0.7,0.8,0.7C77.2,53.4,77.5,53.1,77.5,52.7z M75.8,54.3c0-0.4-0.4-0.8-0.7-0.8
			c-0.4,0.1-0.7,0.2-0.7,0.7c0,0.4,0.4,0.8,0.7,0.8C75.5,54.9,75.8,54.6,75.8,54.3z"/>
		<path class="st11" d="M79.7,52.8c-0.1-0.1-0.3-0.2-0.4-0.3c-0.5-0.5-1-1.1-1.4-1.7c-0.4-0.4-0.8-0.9-1.2-1.3c0.3-0.3,0.7-0.7,1-1
			c0.2-0.2,0.3-0.3,0.5-0.5c0.4-0.4,0.9-0.8,1.3-1.3c0.4-0.4,0.7-0.7,1.1-1.1c0.1-0.1,0.3-0.2,0.4-0.4c0.4,0.5,0.8,1,1.2,1.4
			c0.5,0.5,0.9,1.1,1.4,1.6c0.1,0.1,0.2,0.3,0.3,0.4c-0.3,0.3-0.6,0.6-0.9,0.9c-0.3,0.3-0.7,0.6-1,0.9
			C81.2,51.3,80.5,52.1,79.7,52.8z M82.1,48.6c0-0.4-0.2-0.7-0.9-0.7c-0.2,0-0.5,0.4-0.5,0.7c0,0.4,0.3,0.8,0.7,0.8
			C81.8,49.3,82.1,49.2,82.1,48.6z M79.7,49.4c-0.4,0-0.7,0.3-0.7,0.6c0,0.5,0.3,0.8,0.7,0.8c0.5,0,0.8-0.3,0.8-0.7
			C80.4,49.7,80.1,49.4,79.7,49.4z"/>
		<path class="st12" d="M67.8,48.7c0.3-0.3,0.5-0.5,0.8-0.8c0.4-0.3,0.7-0.6,1.1-0.9c0.5-0.5,1.1-1,1.6-1.5c0.2-0.1,0.4-0.2,0.6-0.1
			c0.2,0.1,0.5,0.1,0.7,0.2c0.1,0.1,0.2,0.2,0.3,0.3c-0.3-0.1-0.6-0.2-0.9-0.1c-0.1,0-0.2,0.1-0.3,0.1c-0.2,0.2-0.4,0.3-0.5,0.5
			c-0.2,0.2-0.4,0.4-0.6,0.5c-0.2,0.2-0.3,0.3-0.5,0.5c-0.2,0.2-0.4,0.4-0.7,0.6c-0.2,0.2-0.3,0.3-0.5,0.5c-0.2,0.2-0.5,0.4-0.7,0.7
			C68.1,48.9,67.9,48.8,67.8,48.7z"/>
		<path class="st13" d="M75.9,43.2c-0.1-0.2-0.3-0.3-0.3-0.5c-0.1-0.4-0.1-0.8,0.2-1.2c0.2-0.2,0.5-0.4,0.7-0.7
			c0.1-0.1,0.2-0.2,0.4-0.3c0.1,0.1,0.2,0.3,0.3,0.4c-0.3,0.3-0.6,0.5-0.9,0.8c-0.1,0.2-0.3,0.4-0.4,0.6
			C75.9,42.6,75.9,42.9,75.9,43.2z"/>
		<path class="st14" d="M71.2,46.3c0.2-0.2,0.4-0.3,0.5-0.5c0,0.1,0.1,0.1,0.1,0.2c0.8,0.9,1.7,1.9,2.5,2.8c0.1,0.1,0.2,0.2,0.2,0.3
			c0.1,0.1,0.1,0.3,0,0.4c-0.1,0.1-0.3,0.1-0.4,0c-0.4-0.5-0.9-1-1.3-1.5c-0.3-0.4-0.6-0.7-0.9-1.1C71.7,46.8,71.4,46.6,71.2,46.3z"
			/>
		<path class="st14" d="M68.9,48.4c0.2-0.2,0.3-0.3,0.5-0.5c0.3,0.4,0.6,0.7,0.9,1.1c0.7,0.7,1.3,1.5,2,2.2c0.1,0.1,0.1,0.3,0,0.4
			c-0.1,0.1-0.3,0.1-0.5,0c-0.2-0.2-0.3-0.3-0.5-0.5c-0.5-0.6-1-1.1-1.5-1.7c-0.3-0.3-0.5-0.6-0.8-0.8C69.1,48.5,69,48.4,68.9,48.4z
			"/>
		<path class="st14" d="M70.1,47.3c0.2-0.2,0.3-0.3,0.5-0.5c0.1,0.2,0.3,0.4,0.4,0.5c0.4,0.5,0.9,1,1.4,1.5c0.4,0.4,0.7,0.8,1.1,1.2
			c0.1,0.1,0.1,0.3,0,0.5c-0.1,0.1-0.4,0.1-0.5,0c-0.5-0.5-0.9-1-1.4-1.5c-0.3-0.3-0.6-0.7-0.9-1C70.5,47.8,70.3,47.6,70.1,47.3z"/>
		<path class="st14" d="M75.9,42.4c0.1-0.2,0.3-0.4,0.4-0.6c0.1,0.2,0.3,0.4,0.4,0.6c0.5,0.5,0.9,1,1.4,1.5c0.4,0.4,0.7,0.8,1,1.2
			c0.1,0.1,0.2,0.3,0,0.5c-0.1,0.1-0.4,0.1-0.5-0.1c-0.3-0.3-0.6-0.6-0.9-1c-0.3-0.3-0.6-0.7-0.9-1c-0.3-0.3-0.5-0.6-0.8-0.9
			C76.1,42.5,76,42.4,75.9,42.4z"/>
		<path class="st14" d="M74.6,46.8c0.4,0.4,0.7,0.8,1.1,1.3c0,0,0.1,0.1,0.1,0.1c0.1,0.2,0.1,0.3,0,0.5c-0.1,0.1-0.3,0.1-0.4,0
			c-0.3-0.3-0.6-0.7-0.9-1c-0.2-0.2-0.3-0.4-0.5-0.6c0-0.1-0.1-0.1-0.1-0.2C74.1,46.9,74.3,47,74.6,46.8z"/>
		<path class="st14" d="M77.4,45.4c0.2,0.2,0.4,0.5,0.6,0.7c0.2,0.2,0.1,0.5-0.2,0.5c0,0-0.1,0-0.1,0c-0.2-0.3-0.5-0.6-0.7-0.8
			C77.2,45.6,77.3,45.5,77.4,45.4z"/>
		<path class="st13" d="M75.7,46.9C75.7,46.9,75.8,46.9,75.7,46.9c0.8,0.1,1-0.3,1-0.9c0.2,0.2,0.4,0.4,0.3,0.7
			c-0.1,0.5-0.2,0.5-0.6,0.6C76.2,47.4,75.9,47.2,75.7,46.9z"/>
		<path class="st13" d="M74.6,46.8c-0.3,0.2-0.5,0.1-0.8,0c-0.1-0.1-0.2-0.2-0.3-0.3c0.2,0,0.3,0.1,0.5,0c0.3-0.1,0.4-0.3,0.5-0.6
			c0-0.1,0-0.2,0.1-0.3c0.1,0.1,0.2,0.2,0.3,0.3c0,0,0,0.1,0,0.1c0,0,0,0,0,0C74.9,46.3,74.8,46.6,74.6,46.8z"/>
		<path class="st13" d="M77.4,45.4c-0.1,0.1-0.3,0.3-0.4,0.4c-0.2,0-0.4,0-0.6,0c0,0,0,0,0,0c0,0,0,0,0,0c-0.1-0.1-0.2-0.2-0.3-0.4
			c0.3,0,0.5,0.1,0.7-0.1c0.2-0.2,0.3-0.4,0.2-0.7C77.4,44.8,77.4,45.1,77.4,45.4z"/>
		<path class="st6" d="M74.9,46C74.9,46,74.8,46,74.9,46C74.8,46,74.9,46,74.9,46z"/>
		<path class="st6" d="M76.4,45.7C76.5,45.8,76.5,45.8,76.4,45.7C76.5,45.8,76.5,45.8,76.4,45.7z"/>
		<path class="st15" d="M77.5,52.7c0,0.4-0.3,0.7-0.7,0.7c-0.4,0-0.8-0.3-0.8-0.7c0-0.5,0.3-0.7,0.8-0.7
			C77.2,51.9,77.5,52.3,77.5,52.7z"/>
		<path class="st15" d="M75.8,54.3c0,0.4-0.3,0.7-0.7,0.7c-0.3,0-0.7-0.4-0.7-0.8c0-0.5,0.3-0.7,0.7-0.7
			C75.5,53.4,75.8,53.9,75.8,54.3z"/>
		<path class="st16" d="M82.1,48.6c0,0.6-0.3,0.7-0.8,0.8c-0.3,0-0.7-0.4-0.7-0.8c0-0.3,0.3-0.7,0.5-0.7
			C81.8,47.9,82.1,48.2,82.1,48.6z"/>
		<path class="st17" d="M79.7,49.4c0.4,0,0.7,0.3,0.7,0.7c0,0.4-0.3,0.7-0.8,0.7c-0.4,0-0.7-0.3-0.7-0.8
			C78.9,49.7,79.3,49.4,79.7,49.4z"/>
	</g>
</g>
</svg>
