<?xml version="1.0" encoding="utf-8"?>
<!-- Generator: Adobe Illustrator 22.1.0, SVG Export Plug-In . SVG Version: 6.00 Build 0)  -->
<svg version="1.1" id="Layer_1" xmlns="http://www.w3.org/2000/svg" xmlns:xlink="http://www.w3.org/1999/xlink" x="0px" y="0px"
	 viewBox="0 0 128 128" style="enable-background:new 0 0 128 128;" xml:space="preserve">
<style type="text/css">
	.st0{fill:#A6A6AD;}
	.st1{fill:#3E3E42;}
	.st2{opacity:0.1;enable-background:new    ;}
	.st3{fill:#D2D2D6;}
	.st4{fill:#57575E;}
	.st5{fill:#F4F4F4;}
</style>
<polygon class="st0" points="75,103 53,103 55,92 73,92 "/>
<path class="st1" d="M107,95H21c-3.3,0-7-3.7-7-7V29c0-3.3,2.7-6,6-6h88c3.3,0,6,2.7,6,6v59C114,91.3,110.3,95,107,95z"/>
<polygon class="st2" points="74.1,98 73,92 55,92 53.9,98 "/>
<path class="st3" d="M14,83.3V89c0,3.3,2.7,6,6,6h88c3.3,0,6-2.7,6-6v-5.7c0-0.2-0.1-0.3-0.3-0.3H14.3C14.1,83,14,83.1,14,83.3z"/>
<rect x="19" y="28" class="st4" width="90" height="50"/>
<circle class="st0" cx="64" cy="89" r="3"/>
<path class="st3" d="M80,104c0,0.6-0.4,1-1,1H49c-0.6,0-1-0.4-1-1v-1c0-0.6,0.4-1,1-1h30c0.6,0,1,0.4,1,1V104z"/>
<rect x="-6.5" y="-13" style="fill:none;" width="3.5" height="11.5"/>
<g>
	<path class="st5" d="M26.8,46.9V53h-2v-6.1h-1.7v-1.7h5.3v1.7H26.8z"/>
	<path class="st5" d="M31.3,45.2V53h-2v-7.8H31.3z"/>
	<path class="st5" d="M32.6,53l1.3-7.8h2l1.6,4.1l1.5-4.1h2l1.3,7.8h-2l-0.7-4.5L37.8,53H37l-1.7-4.5L34.6,53H32.6z"/>
	<path class="st5" d="M43.3,49.1c0-0.6,0.1-1.1,0.3-1.6c0.2-0.5,0.5-0.9,0.9-1.3c0.4-0.4,0.8-0.7,1.4-0.9s1.1-0.3,1.7-0.3
		c0.6,0,1.2,0.1,1.7,0.3c0.5,0.2,1,0.5,1.4,0.9c0.4,0.4,0.7,0.8,0.9,1.3s0.3,1,0.3,1.6s-0.1,1.1-0.3,1.6S51,51.7,50.7,52
		c-0.4,0.4-0.8,0.7-1.4,0.9c-0.5,0.2-1.1,0.3-1.7,0.3c-0.6,0-1.2-0.1-1.7-0.3c-0.5-0.2-1-0.5-1.4-0.9c-0.4-0.4-0.7-0.8-0.9-1.3
		C43.4,50.2,43.3,49.7,43.3,49.1z M45.4,49.1c0,0.3,0.1,0.6,0.2,0.9c0.1,0.3,0.3,0.5,0.5,0.7c0.2,0.2,0.4,0.3,0.7,0.4
		c0.3,0.1,0.5,0.2,0.8,0.2c0.3,0,0.6-0.1,0.8-0.2c0.3-0.1,0.5-0.3,0.7-0.4s0.4-0.4,0.5-0.7c0.1-0.3,0.2-0.5,0.2-0.9
		s-0.1-0.6-0.2-0.9c-0.1-0.3-0.3-0.5-0.5-0.7s-0.4-0.3-0.7-0.4C48.1,47,47.9,47,47.6,47c-0.3,0-0.6,0.1-0.8,0.2
		c-0.3,0.1-0.5,0.3-0.7,0.4c-0.2,0.2-0.4,0.4-0.5,0.7C45.4,48.5,45.4,48.8,45.4,49.1z"/>
	<path class="st5" d="M53.2,53v-7.8h2l3.7,4.7v-4.7h2V53h-2l-3.7-4.8V53H53.2z"/>
	<path class="st5" d="M67.3,45.2l1.3,5l1.6-5h1.6l1.6,5l1.3-5H77L74.7,53h-2.1l-1.5-4.5L69.6,53h-2.1l-2.3-7.8H67.3z"/>
	<path class="st5" d="M77.3,49.1c0-0.6,0.1-1.1,0.3-1.6s0.5-0.9,0.9-1.3c0.4-0.4,0.8-0.7,1.4-0.9S81,45,81.6,45
		c0.6,0,1.2,0.1,1.7,0.3c0.5,0.2,1,0.5,1.4,0.9c0.4,0.4,0.7,0.8,0.9,1.3s0.3,1,0.3,1.6s-0.1,1.1-0.3,1.6s-0.5,0.9-0.9,1.3
		c-0.4,0.4-0.8,0.7-1.4,0.9c-0.5,0.2-1.1,0.3-1.7,0.3c-0.6,0-1.2-0.1-1.7-0.3c-0.5-0.2-1-0.5-1.4-0.9c-0.4-0.4-0.7-0.8-0.9-1.3
		S77.3,49.7,77.3,49.1z M79.5,49.1c0,0.3,0.1,0.6,0.2,0.9c0.1,0.3,0.3,0.5,0.5,0.7s0.4,0.3,0.7,0.4c0.3,0.1,0.5,0.2,0.8,0.2
		c0.3,0,0.6-0.1,0.8-0.2s0.5-0.3,0.7-0.4c0.2-0.2,0.4-0.4,0.5-0.7c0.1-0.3,0.2-0.5,0.2-0.9s-0.1-0.6-0.2-0.9
		c-0.1-0.3-0.3-0.5-0.5-0.7c-0.2-0.2-0.4-0.3-0.7-0.4S81.9,47,81.6,47c-0.3,0-0.6,0.1-0.8,0.2c-0.3,0.1-0.5,0.3-0.7,0.4
		s-0.4,0.4-0.5,0.7C79.5,48.5,79.5,48.8,79.5,49.1z"/>
	<path class="st5" d="M87.2,53v-7.8h2L93,50v-4.7h2V53h-2l-3.7-4.8V53H87.2z"/>
	<path class="st5" d="M100.5,48.7h4c0,0.4,0,0.8-0.1,1.1c0,0.3-0.1,0.6-0.2,0.9c-0.1,0.4-0.3,0.8-0.6,1.1c-0.2,0.3-0.5,0.6-0.9,0.8
		c-0.3,0.2-0.7,0.4-1.1,0.5c-0.4,0.1-0.8,0.2-1.3,0.2c-0.6,0-1.2-0.1-1.7-0.3s-0.9-0.5-1.3-0.8c-0.4-0.4-0.6-0.8-0.8-1.3
		s-0.3-1.1-0.3-1.7c0-0.6,0.1-1.2,0.3-1.7c0.2-0.5,0.5-0.9,0.8-1.3c0.4-0.4,0.8-0.6,1.3-0.8c0.5-0.2,1.1-0.3,1.7-0.3
		c0.8,0,1.5,0.2,2.1,0.5c0.6,0.4,1.1,0.9,1.5,1.6l-1.9,0.8c-0.2-0.4-0.4-0.7-0.7-0.9c-0.3-0.2-0.6-0.3-1-0.3c-0.3,0-0.6,0.1-0.8,0.2
		c-0.2,0.1-0.5,0.3-0.6,0.5c-0.2,0.2-0.3,0.5-0.4,0.8s-0.1,0.6-0.1,1c0,0.3,0,0.6,0.1,0.9c0.1,0.3,0.2,0.5,0.4,0.7s0.4,0.4,0.6,0.5
		s0.5,0.2,0.9,0.2c0.2,0,0.4,0,0.6-0.1c0.2,0,0.4-0.1,0.5-0.2s0.3-0.2,0.4-0.4c0.1-0.2,0.2-0.4,0.2-0.6h-1.7V48.7z"/>
	<path class="st5" d="M41,56.4h2.2c0.4,0,0.8,0.1,1.1,0.2c0.3,0.2,0.7,0.4,0.9,0.6c0.3,0.3,0.5,0.6,0.6,0.9c0.1,0.4,0.2,0.7,0.2,1.1
		c0,0.4-0.1,0.7-0.2,1.1s-0.4,0.7-0.6,0.9s-0.6,0.5-0.9,0.6c-0.3,0.2-0.7,0.2-1.1,0.2H41V56.4z M42.5,61h0.3c0.3,0,0.5,0,0.7-0.1
		s0.4-0.2,0.5-0.3c0.1-0.1,0.2-0.3,0.3-0.5s0.1-0.4,0.1-0.7c0-0.2,0-0.4-0.1-0.6c-0.1-0.2-0.2-0.4-0.3-0.5s-0.3-0.3-0.5-0.3
		c-0.2-0.1-0.4-0.1-0.7-0.1h-0.3V61z"/>
	<path class="st5" d="M50.4,57.7h-1.8v1h1.7V60h-1.7v1h1.8v1.3h-3.3v-5.8h3.3V57.7z"/>
	<path class="st5" d="M52.5,56.4l1.4,3.5l1.4-3.5H57l-2.5,5.8h-1.2l-2.4-5.8H52.5z"/>
	<path class="st5" d="M60.9,57.7h-1.8v1h1.7V60h-1.7v1h1.8v1.3h-3.3v-5.8h3.3V57.7z"/>
	<path class="st5" d="M63.5,56.4V61h1.8v1.3H62v-5.8H63.5z"/>
	<path class="st5" d="M65.7,59.4c0-0.4,0.1-0.8,0.2-1.2c0.2-0.4,0.4-0.7,0.7-1s0.6-0.5,1-0.7c0.4-0.2,0.8-0.2,1.3-0.2
		c0.5,0,0.9,0.1,1.3,0.2s0.7,0.4,1,0.7c0.3,0.3,0.5,0.6,0.7,1c0.2,0.4,0.2,0.8,0.2,1.2c0,0.4-0.1,0.8-0.2,1.2
		c-0.2,0.4-0.4,0.7-0.7,1c-0.3,0.3-0.6,0.5-1,0.7c-0.4,0.2-0.8,0.2-1.3,0.2c-0.5,0-0.9-0.1-1.3-0.2c-0.4-0.2-0.7-0.4-1-0.7
		c-0.3-0.3-0.5-0.6-0.7-1C65.8,60.2,65.7,59.8,65.7,59.4z M67.3,59.4c0,0.2,0,0.4,0.1,0.6c0.1,0.2,0.2,0.4,0.4,0.5
		c0.1,0.1,0.3,0.3,0.5,0.3c0.2,0.1,0.4,0.1,0.6,0.1s0.4,0,0.6-0.1c0.2-0.1,0.4-0.2,0.5-0.3c0.2-0.1,0.3-0.3,0.4-0.5
		c0.1-0.2,0.1-0.4,0.1-0.6c0-0.2,0-0.4-0.1-0.6c-0.1-0.2-0.2-0.4-0.4-0.5c-0.2-0.1-0.3-0.3-0.5-0.3c-0.2-0.1-0.4-0.1-0.6-0.1
		s-0.4,0-0.6,0.1c-0.2,0.1-0.4,0.2-0.5,0.3c-0.1,0.1-0.3,0.3-0.4,0.5C67.3,58.9,67.3,59.1,67.3,59.4z"/>
	<path class="st5" d="M74.6,62.3h-1.5v-5.8h2.4c0.7,0,1.2,0.2,1.5,0.5c0.3,0.3,0.5,0.8,0.5,1.4s-0.2,1.1-0.5,1.4s-0.8,0.5-1.5,0.5
		h-0.9V62.3z M74.6,59.1h0.5c0.6,0,0.8-0.2,0.8-0.7c0-0.5-0.3-0.7-0.8-0.7h-0.5V59.1z"/>
	<path class="st5" d="M81.7,57.7h-1.8v1h1.7V60h-1.7v1h1.8v1.3h-3.3v-5.8h3.3V57.7z"/>
	<path class="st5" d="M87.6,62.3h-1.9L84.3,60v2.2h-1.5v-5.8h2.4c0.3,0,0.6,0,0.8,0.1s0.4,0.2,0.6,0.4c0.2,0.2,0.3,0.4,0.4,0.6
		C87,57.8,87,58,87,58.2c0,0.4-0.1,0.8-0.3,1.1c-0.2,0.3-0.5,0.5-0.9,0.6L87.6,62.3z M84.3,59.1h0.3c0.3,0,0.5-0.1,0.7-0.2
		c0.2-0.1,0.2-0.3,0.2-0.5s-0.1-0.4-0.2-0.5c-0.2-0.1-0.4-0.2-0.7-0.2h-0.3V59.1z"/>
</g>
</svg>
